<svg id="visual" viewBox="0 0 900 600" width="900" height="600" xmlns="http://www.w3.org/2000/svg" xmlns:xlink="http://www.w3.org/1999/xlink" version="1.1"><path d="M0 73L10 72C20 71 40 69 60 69C80 69 100 71 120 64C140 57 160 41 180 36C200 31 220 37 240 48C260 59 280 75 300 74C320 73 340 55 360 46C380 37 400 37 420 40C440 43 460 49 480 48C500 47 520 39 540 37C560 35 580 39 600 38C620 37 640 31 660 25C680 19 700 13 720 10C740 7 760 7 780 9C800 11 820 15 840 16C860 17 880 15 890 14L900 13L900 0L890 0C880 0 860 0 840 0C820 0 800 0 780 0C760 0 740 0 720 0C700 0 680 0 660 0C640 0 620 0 600 0C580 0 560 0 540 0C520 0 500 0 480 0C460 0 440 0 420 0C400 0 380 0 360 0C340 0 320 0 300 0C280 0 260 0 240 0C220 0 200 0 180 0C160 0 140 0 120 0C100 0 80 0 60 0C40 0 20 0 10 0L0 0Z" fill="#ffffff"></path><path d="M0 91L10 92C20 93 40 95 60 96C80 97 100 97 120 90C140 83 160 69 180 69C200 69 220 83 240 92C260 101 280 105 300 104C320 103 340 97 360 85C380 73 400 55 420 51C440 47 460 57 480 57C500 57 520 47 540 47C560 47 580 57 600 59C620 61 640 55 660 48C680 41 700 33 720 28C740 23 760 21 780 25C800 29 820 39 840 43C860 47 880 45 890 44L900 43L900 11L890 12C880 13 860 15 840 14C820 13 800 9 780 7C760 5 740 5 720 8C700 11 680 17 660 23C640 29 620 35 600 36C580 37 560 33 540 35C520 37 500 45 480 46C460 47 440 41 420 38C400 35 380 35 360 44C340 53 320 71 300 72C280 73 260 57 240 46C220 35 200 29 180 34C160 39 140 55 120 62C100 69 80 67 60 67C40 67 20 69 10 70L0 71Z" fill="#f2f1f8"></path><path d="M0 103L10 111C20 119 40 135 60 143C80 151 100 151 120 144C140 137 160 123 180 122C200 121 220 133 240 136C260 139 280 133 300 125C320 117 340 107 360 93C380 79 400 61 420 60C440 59 460 75 480 85C500 95 520 99 540 97C560 95 580 87 600 84C620 81 640 83 660 83C680 83 700 81 720 70C740 59 760 39 780 40C800 41 820 63 840 70C860 77 880 69 890 65L900 61L900 41L890 42C880 43 860 45 840 41C820 37 800 27 780 23C760 19 740 21 720 26C700 31 680 39 660 46C640 53 620 59 600 57C580 55 560 45 540 45C520 45 500 55 480 55C460 55 440 45 420 49C400 53 380 71 360 83C340 95 320 101 300 102C280 103 260 99 240 90C220 81 200 67 180 67C160 67 140 81 120 88C100 95 80 95 60 94C40 93 20 91 10 90L0 89Z" fill="#e5e3f1"></path><path d="M0 163L10 165C20 167 40 171 60 186C80 201 100 227 120 226C140 225 160 197 180 195C200 193 220 217 240 218C260 219 280 197 300 188C320 179 340 183 360 171C380 159 400 131 420 133C440 135 460 167 480 173C500 179 520 159 540 169C560 179 580 219 600 216C620 213 640 167 660 156C680 145 700 169 720 170C740 171 760 149 780 153C800 157 820 187 840 191C860 195 880 173 890 162L900 151L900 59L890 63C880 67 860 75 840 68C820 61 800 39 780 38C760 37 740 57 720 68C700 79 680 81 660 81C640 81 620 79 600 82C580 85 560 93 540 95C520 97 500 93 480 83C460 73 440 57 420 58C400 59 380 77 360 91C340 105 320 115 300 123C280 131 260 137 240 134C220 131 200 119 180 120C160 121 140 135 120 142C100 149 80 149 60 141C40 133 20 117 10 109L0 101Z" fill="#d8d5ea"></path><path d="M0 205L10 210C20 215 40 225 60 245C80 265 100 295 120 292C140 289 160 253 180 245C200 237 220 257 240 259C260 261 280 245 300 237C320 229 340 229 360 209C380 189 400 149 420 145C440 141 460 173 480 179C500 185 520 165 540 174C560 183 580 221 600 220C620 219 640 179 660 173C680 167 700 195 720 198C740 201 760 179 780 188C800 197 820 237 840 245C860 253 880 229 890 217L900 205L900 149L890 160C880 171 860 193 840 189C820 185 800 155 780 151C760 147 740 169 720 168C700 167 680 143 660 154C640 165 620 211 600 214C580 217 560 177 540 167C520 157 500 177 480 171C460 165 440 133 420 131C400 129 380 157 360 169C340 181 320 177 300 186C280 195 260 217 240 216C220 215 200 191 180 193C160 195 140 223 120 224C100 225 80 199 60 184C40 169 20 165 10 163L0 161Z" fill="#cbc7e3"></path><path d="M0 247L10 253C20 259 40 271 60 286C80 301 100 319 120 317C140 315 160 293 180 285C200 277 220 283 240 285C260 287 280 285 300 278C320 271 340 259 360 238C380 217 400 187 420 181C440 175 460 193 480 197C500 201 520 191 540 200C560 209 580 237 600 230C620 223 640 181 660 180C680 179 700 219 720 227C740 235 760 211 780 215C800 219 820 251 840 263C860 275 880 267 890 263L900 259L900 203L890 215C880 227 860 251 840 243C820 235 800 195 780 186C760 177 740 199 720 196C700 193 680 165 660 171C640 177 620 217 600 218C580 219 560 181 540 172C520 163 500 183 480 177C460 171 440 139 420 143C400 147 380 187 360 207C340 227 320 227 300 235C280 243 260 259 240 257C220 255 200 235 180 243C160 251 140 287 120 290C100 293 80 263 60 243C40 223 20 213 10 208L0 203Z" fill="#cbc7e3"></path><path d="M0 295L10 296C20 297 40 299 60 309C80 319 100 337 120 341C140 345 160 335 180 332C200 329 220 333 240 333C260 333 280 329 300 318C320 307 340 289 360 263C380 237 400 203 420 196C440 189 460 209 480 212C500 215 520 201 540 211C560 221 580 255 600 256C620 257 640 225 660 224C680 223 700 253 720 259C740 265 760 247 780 249C800 251 820 273 840 280C860 287 880 279 890 275L900 271L900 257L890 261C880 265 860 273 840 261C820 249 800 217 780 213C760 209 740 233 720 225C700 217 680 177 660 178C640 179 620 221 600 228C580 235 560 207 540 198C520 189 500 199 480 195C460 191 440 173 420 179C400 185 380 215 360 236C340 257 320 269 300 276C280 283 260 285 240 283C220 281 200 275 180 283C160 291 140 313 120 315C100 317 80 299 60 284C40 269 20 257 10 251L0 245Z" fill="#cbc7e3"></path><path d="M0 427L10 414C20 401 40 375 60 373C80 371 100 393 120 401C140 409 160 403 180 391C200 379 220 361 240 350C260 339 280 335 300 345C320 355 340 379 360 389C380 399 400 395 420 402C440 409 460 427 480 427C500 427 520 409 540 389C560 369 580 347 600 337C620 327 640 329 660 334C680 339 700 347 720 348C740 349 760 343 780 341C800 339 820 341 840 351C860 361 880 379 890 388L900 397L900 269L890 273C880 277 860 285 840 278C820 271 800 249 780 247C760 245 740 263 720 257C700 251 680 221 660 222C640 223 620 255 600 254C580 253 560 219 540 209C520 199 500 213 480 210C460 207 440 187 420 194C400 201 380 235 360 261C340 287 320 305 300 316C280 327 260 331 240 331C220 331 200 327 180 330C160 333 140 343 120 339C100 335 80 317 60 307C40 297 20 295 10 294L0 293Z" fill="#d8d5ea"></path><path d="M0 463L10 449C20 435 40 407 60 410C80 413 100 447 120 461C140 475 160 469 180 456C200 443 220 423 240 405C260 387 280 371 300 383C320 395 340 435 360 456C380 477 400 479 420 483C440 487 460 493 480 481C500 469 520 439 540 422C560 405 580 401 600 397C620 393 640 389 660 392C680 395 700 405 720 412C740 419 760 423 780 416C800 409 820 391 840 393C860 395 880 417 890 428L900 439L900 395L890 386C880 377 860 359 840 349C820 339 800 337 780 339C760 341 740 347 720 346C700 345 680 337 660 332C640 327 620 325 600 335C580 345 560 367 540 387C520 407 500 425 480 425C460 425 440 407 420 400C400 393 380 397 360 387C340 377 320 353 300 343C280 333 260 337 240 348C220 359 200 377 180 389C160 401 140 407 120 399C100 391 80 369 60 371C40 373 20 399 10 412L0 425Z" fill="#e5e3f1"></path><path d="M0 595L10 590C20 585 40 575 60 566C80 557 100 549 120 544C140 539 160 537 180 539C200 541 220 547 240 552C260 557 280 561 300 557C320 553 340 541 360 543C380 545 400 561 420 562C440 563 460 549 480 553C500 557 520 579 540 587C560 595 580 589 600 585C620 581 640 579 660 564C680 549 700 521 720 505C740 489 760 485 780 485C800 485 820 489 840 495C860 501 880 509 890 513L900 517L900 437L890 426C880 415 860 393 840 391C820 389 800 407 780 414C760 421 740 417 720 410C700 403 680 393 660 390C640 387 620 391 600 395C580 399 560 403 540 420C520 437 500 467 480 479C460 491 440 485 420 481C400 477 380 475 360 454C340 433 320 393 300 381C280 369 260 385 240 403C220 421 200 441 180 454C160 467 140 473 120 459C100 445 80 411 60 408C40 405 20 433 10 447L0 461Z" fill="#f2f1f8"></path><path d="M0 601L10 601C20 601 40 601 60 601C80 601 100 601 120 601C140 601 160 601 180 601C200 601 220 601 240 601C260 601 280 601 300 601C320 601 340 601 360 601C380 601 400 601 420 601C440 601 460 601 480 601C500 601 520 601 540 601C560 601 580 601 600 601C620 601 640 601 660 601C680 601 700 601 720 601C740 601 760 601 780 601C800 601 820 601 840 601C860 601 880 601 890 601L900 601L900 515L890 511C880 507 860 499 840 493C820 487 800 483 780 483C760 483 740 487 720 503C700 519 680 547 660 562C640 577 620 579 600 583C580 587 560 593 540 585C520 577 500 555 480 551C460 547 440 561 420 560C400 559 380 543 360 541C340 539 320 551 300 555C280 559 260 555 240 550C220 545 200 539 180 537C160 535 140 537 120 542C100 547 80 555 60 564C40 573 20 583 10 588L0 593Z" fill="#ffffff"></path></svg>