<?xml version="1.0" encoding="UTF-8"?>
<svg id="Layer_1" data-name="Layer 1" xmlns="http://www.w3.org/2000/svg" viewBox="0 0 2005.27 395.42">
  <defs>
    <style>
      .cls-1 {
        fill: none;
        stroke: #000;
        stroke-linecap: round;
        stroke-miterlimit: 10;
        stroke-width: 21px;
      }
    </style>
  </defs>
  <path class="cls-1" d="M10.5,10.5c39.59,38.69,376.42,280.97,491.52,321.48,51.54,18.14,146.15,36.36,227.94-13.87,37.44-22.99,87.59-85.58,73.7-146.65-8.75-38.48-31.4-91.37-51.98-83-48.17,19.59,15.91,297.1,20.93,296.46,2.7-.34-1.73-103.49,22.65-109.07,60.62-13.89,42.47,102.98,75.82,95.12,21.81-5.14,18.98-42.54,58.25-69.52,24.84-17.07,22.04-18.94,23.34-28.96,1.94-14.95-18.92-37.9-40.36-25.69-29.24,16.65-19.53,113.02,11.76,123.42,31.88,10.6,83.16-63.26,102.94-98.53,14.04-25.03,27.22-49.21,27.17-82.22-.09-54.01-35.57-108.44-52.17-104.55-33.53,7.86-27.46,257.65,37.01,274.22,10.1,2.6,18.23,3.73,32.53-3.21,60.04-29.12,92.57-106.49,87.23-174.69-4.1-52.27-31.24-109.26-46.48-106.61-32.05,5.58-30.2,274.91,27.1,289.09,19.76,4.89,42.18-17.94,44.64-20.6,31.39-33.79,29.53-88.59,26.79-89.08-3.28-.59-24.88,70.93-1.15,93.3,13.76,12.97,48.96,17.01,66.27,4.7,32.63-23.21,28.97-89.62,4-111.24-19.13-16.56-55.7-11.04-58.82-1.47-6.93,21.21,44.81,58.07,100,55.88,102.16-4.04,144.01-124.62,300-141.18,63.28-6.72,344.92-.89,373.64.31"/>
</svg>