<?xml version="1.0" encoding="UTF-8"?>
<svg xmlns="http://www.w3.org/2000/svg" version="1.1" viewBox="0 0 160 160">
  <!-- Generator: Adobe Illustrator 29.3.1, SVG Export Plug-In . SVG Version: 2.1.0 Build 151)  -->
  <defs>
    <style>
      .st0 {
        stroke: lime;
      }

      .st0, .st1, .st2, .st3 {
        fill: none;
        stroke-miterlimit: 10;
      }

      .st4 {
        fill: #ffe5d1;
      }

      .st1 {
        stroke-width: 4.54px;
      }

      .st1, .st2, .st3 {
        stroke: red;
      }

      .st2 {
        stroke-width: 6.02px;
      }

      .st3 {
        stroke-width: 3.96px;
      }

      .st5 {
        display: none;
      }
    </style>
  </defs>
  <g id="Layer_2" class="st5">
    <g>
      <rect class="st0" width="160" height="160"/>
      <line class="st0" y1="133.33" x2="160" y2="133.33"/>
      <line class="st0" y1="106.67" x2="160" y2="106.67"/>
      <line class="st0" y1="80" x2="160" y2="80"/>
      <line class="st0" y1="53.33" x2="160" y2="53.33"/>
      <line class="st0" y1="26.67" x2="160" y2="26.67"/>
      <line class="st0" x1="133.33" x2="133.33" y2="160"/>
      <line class="st0" x1="106.67" x2="106.67" y2="160"/>
      <line class="st0" x1="80" x2="80" y2="160"/>
      <line class="st0" x1="53.33" x2="53.33" y2="160"/>
      <line class="st0" x1="26.67" x2="26.67" y2="160"/>
    </g>
    <circle class="st0" cx="80" cy="80" r="80"/>
    <circle class="st0" cx="80" cy="80" r="53.33"/>
    <circle class="st0" cx="80.45" cy="80.45" r="27.12"/>
  </g>
  <g id="Layer_3" class="st5">
    <rect class="st4" width="160" height="160"/>
  </g>
  <g id="Layer_1">
    <g>
      <path class="st2" d="M136.32,48.34c4.52,7.56,5.86,13.95,6.23,18.42.77,9.15-2.27,13.06.27,20.29,2.7,7.68,9.41,7.5,8.94,12.81-.94,10.6-13.17,23.79-28.71,28.58-20.86,6.43-38.41-4.78-40.08-5.88-2.86-1.9-14-9.74-17.88-23.76-.66-2.4-4.54-17.38,2.17-21.36,3.53-2.09,8.97-.52,12.19,2.4,5.01,4.55,4.6,12.29,1.63,16.02-2.34,2.94-6.08,3.13-5.96,4.27.16,1.44,6.26,2.38,10.56,2.14,3.75-.22,14.58-1.82,26.27-18.42l24.38-35.51Z"/>
      <path class="st2" d="M136.32,48.34c1.39-2.4,2.94-3.89,3.7-6.76.89-3.38.18-6.96-1.82-9.85-16.23-23.5-84.97-22.03-99.12.06-6.21,9.29-4.29,17.99-6.77,34.17-.05.31-.1.63-.15.95-1.9,11.74-7.2,22.68-15.15,31.62-2.97,3.34-13.08,14.42-5.65,24.04.09.11.17.22.26.33,5.5,6.83,15.16,8.87,23.09,5.01,6.58-3.21,14.92-8.78,15.37-16.55.01-.19.02-.39.02-.59.02-2.32-.89-4.58-2.52-6.25-1.05-1.07-2.02-1.55-2.91-1.44-3.81.47-9.06,11.32-6.51,21.32.57,2.24,2.72,9.04,9.57,12.88,5.52,3.09,15.09,4.9,19.74-.3,4.03-4.51,3.38-13.21-.16-15.2-1.92-1.08-5.13-.5-6.45,1.34-1.63,2.26.09,5.73.72,7.01,3.86,7.8,47.94,20.79,65.32,11.2.13-.07.36-.21.36-.39,0-1.5-15.33-.39-27.9-5.8-4.5-1.94-10.46-5.49-16.41-12.58"/>
      <path class="st1" d="M70.6,84.78c-.18.1-.52.38-.17,3.97.27,2.72.41,4.08.96,4.28,1.33.49,5.27-2.19,4.6-4.97-.56-2.36-4.23-3.93-5.39-3.28Z"/>
      <path class="st2" d="M74.44,92"/>
      <path class="st2" d="M79.44,79.85"/>
      <path class="st2" d="M126.92,84.64c-14.61-.02-29.19-.02-43.73,0"/>
      <path class="st2" d="M145.14,84.66c-7.54,0-15.09-.01-22.63-.02"/>
      <path class="st3" d="M145.09,91.42c.04-5.96.07-11.92.11-17.88,0-.22.05-.45.16-.64,0,0,.08-.11.2-.19.39-.27,1.56-.09,1.9.04,1.31.49,3.47,5.02,3.36,12.45-.04,2.42-.32,5.95-1.55,10.17"/>
    </g>
  </g>
</svg>